<svg width="17" height="16" viewBox="0 0 17 16" fill="none" xmlns="http://www.w3.org/2000/svg">
<path fill-rule="evenodd" clip-rule="evenodd" d="M9.88388 3.36612C10.372 3.85427 10.372 4.64573 9.88388 5.13388L2.38388 12.6339C1.89573 13.122 1.10427 13.122 0.616117 12.6339C0.127961 12.1457 0.127961 11.3543 0.616117 10.8661L8.11612 3.36612C8.60427 2.87796 9.39573 2.87796 9.88388 3.36612Z" fill="#FF776F" stroke="white" stroke-width="0.5" stroke-linecap="round" stroke-linejoin="round"/>
<path fill-rule="evenodd" clip-rule="evenodd" d="M0.616117 3.36612C1.10427 2.87796 1.89573 2.87796 2.38388 3.36612L9.88388 10.8661C10.372 11.3543 10.372 12.1457 9.88388 12.6339C9.39573 13.122 8.60427 13.122 8.11612 12.6339L0.616117 5.13388C0.127961 4.64573 0.127961 3.85427 0.616117 3.36612Z" fill="#FF776F" stroke="white" stroke-width="0.5" stroke-linecap="round" stroke-linejoin="round"/>
</svg>
