<?xml version="1.0" encoding="utf-8"?>
<svg style="enable-background:new 0 0 16 16;" id="Layer_1" version="1.1" viewBox="0 0 16 16" x="0px"
    xmlns="http://www.w3.org/2000/svg" y="0px" xml:space="preserve">

<path class="st0" d="M13.4,2.6c0.6,0.6,0.6,1.5,0,2.1l-8.7,8.7c-0.6,0.6-1.5,0.6-2.1,0c-0.6-0.6-0.6-1.5,0-2.1l8.7-8.7
	C11.9,2,12.8,2,13.4,2.6z" fill="#FF776F" stroke="white" stroke-linecap="round"
    stroke-linejoin="round" stroke-width="0.5" />
    <path class="st0" d="M2.6,2.6C3.2,2,4.1,2,4.7,2.6l8.7,8.7c0.6,0.6,0.6,1.5,0,2.1c-0.6,0.6-1.5,0.6-2.1,0L2.6,4.7
	C2,4.1,2,3.2,2.6,2.6z" fill="#FF776F" stroke="white" stroke-linecap="round" stroke-linejoin="round"
        stroke-width="0.5" />
</svg>